<svg xmlns="http://www.w3.org/2000/svg" viewBox="0 0 720 140" width="720" height="140">
  <defs>
    <linearGradient id="g" x1="0" y1="0" x2="1" y2="1">
      <stop offset="0%" stop-color="#f0c96a"></stop>
      <stop offset="40%" stop-color="#ff8c42"></stop>
      <stop offset="80%" stop-color="#d4a84b"></stop>
    </linearGradient>
    <linearGradient id="f" x1="0" y1="0" x2="0" y2="1">
      <stop offset="0%" stop-color="#f0c96a"></stop>
      <stop offset="45%" stop-color="#ff8c42"></stop>
      <stop offset="100%" stop-color="#9c3a12"></stop>
    </linearGradient>
    
  </defs>

  
  <g transform="translate(20 20) scale(2.8)">
    <path d="M16 4.5&#xA;             C 17.5 8, 20.5 9, 21 12.5&#xA;             C 21.3 14.8, 20.2 16, 20 17&#xA;             C 22.5 16.5, 24 14, 23.5 11.5&#xA;             C 25.5 14, 26.5 17.5, 25 21&#xA;             C 23.5 24.5, 20 27, 16 27&#xA;             C 12 27, 8.5 24.5, 7 21&#xA;             C 5.8 18, 6.5 15, 8.5 13&#xA;             C 9 15, 10.5 15.5, 11.5 15&#xA;             C 10 13, 10 10, 12 8&#xA;             C 13 10, 14.5 10, 15 8.5&#xA;             C 15 7, 15 6, 16 4.5 Z" fill="url(#f)"></path>
  </g>

  
  <line x1="115" y1="22" x2="115" y2="118" stroke="#d4a84b" stroke-opacity=".35" stroke-width="1"></line>

  
  <text x="135" y="78" class="wordmark" font-size="44" fill="url(#g)">ENSHROUDED</text>
  <text x="135" y="112" class="sub" font-size="18" fill="#c8b89a">B · R · O · S</text>
</svg>